# Exported from Wings 3D 1.5.2
mtllib cityblock.mtl
o City Floor
#36 vertices, 68 faces
v -1.53000700 3.9080000e-2 1.64522100
v 1.53000700 3.9080000e-2 1.64522100
v 1.53000700 3.9080000e-2 -1.64522100
v -1.53000700 3.9080000e-2 -1.64522100
v -1.32600600 9.9935000e-2 1.42585800
v -1.32600600 0.11024850 -0.21936300
v -1.32600600 0.11024850 -0.65808900
v -1.32600600 9.9935000e-2 -1.42585900
v 0.20400100 0.11024850 1.42585800
v 0.51000200 9.9935000e-2 -0.43872600
v 0.51000200 9.9935000e-2 -1.42585900
v 0.61200300 0.11024850 1.42585800
v 1.32600600 9.9935000e-2 1.42585800
v 1.32600600 9.9935000e-2 -0.43872600
v -1.53000700 0.24272300 1.64522100
v 0.10200100 0.24272300 1.64522100
v 0.20400100 0.11024850 1.64522100
v 0.61200300 0.11024850 1.64522100
v 0.71400300 0.24272300 1.64522100
v 1.53000700 0.24272300 1.64522100
v 1.53000700 0.24272300 -1.64522100
v -1.53000700 0.24272300 -1.64522100
v -1.53000700 0.24272300 -0.76777000
v -1.53000700 0.11024850 -0.65808900
v -1.53000700 0.11024850 -0.21936300
v -1.53000700 0.24272300 -0.10968200
v -1.32600600 0.24272300 1.42585800
v -1.32600600 0.24272300 -0.10968200
v 1.32600600 0.24272300 -0.43872600
v -1.32600600 0.24272300 -0.76777000
v -1.32600600 0.24272300 -1.42585900
v 0.10200100 0.24272300 1.42585800
v 0.51000200 0.24272300 -0.43872600
v 0.51000200 0.24272300 -1.42585900
v 0.71400300 0.24272300 1.42585800
v 1.32600600 0.24272300 1.42585800
vt 7.6600000e-3 0.89309700
vt 7.6600000e-3 0.92590300
vt 1.3672000e-2 0.96017500
vt 1.3672000e-2 0.99298100
vt 1.4130000e-2 0.89190700
vt 1.4130000e-2 0.92471300
vt 2.0142000e-2 0.95898400
vt 2.0142000e-2 0.99179100
vt 4.0466000e-2 0.89309700
vt 4.6936000e-2 0.89190700
vt 4.6936000e-2 0.92471300
vt 5.2948000e-2 0.95898400
vt 5.2948000e-2 0.99179100
vt 0.88386500 0.69514500
vt 0.88386500 0.72795100
vt 0.88499500 0.70634500
vt 0.88499500 0.73915100
vt 0.91647300 0.69581600
vt 0.91647300 0.72862200
vt 0.91667200 0.69514500
vt 0.91667200 0.72795100
vt 0.91780100 0.70634500
vt 0.91780100 0.73915100
vn -1.00000000 -5.0831262e-16 0.0000000e+0
vn -7.8084300e-17 0.0000000e+0 1.00000000
vn -7.8084300e-17 0.0000000e+0 1.00000000
vn -7.8084300e-17 0.0000000e+0 1.00000000
vn -1.00000000 -5.0831262e-16 0.0000000e+0
vn -1.00000000 -5.0831262e-16 0.0000000e+0
vn 0.0000000e+0 -1.00000000 0.0000000e+0
vn 1.0768718e-16 0.0000000e+0 1.00000000
vn 0.0000000e+0 -1.00000000 0.0000000e+0
vn 1.00000000 0.0000000e+0 0.0000000e+0
vn 1.0768718e-16 0.0000000e+0 1.00000000
vn 1.0768718e-16 0.0000000e+0 1.00000000
vn 1.0768718e-16 0.0000000e+0 1.00000000
vn 0.0000000e+0 -1.00000000 0.0000000e+0
vn 1.00000000 0.0000000e+0 0.0000000e+0
vn 0.0000000e+0 -1.00000000 0.0000000e+0
vn 1.00000000 0.0000000e+0 0.0000000e+0
vn 0.0000000e+0 0.0000000e+0 -1.00000000
vn 0.0000000e+0 -1.00000000 0.0000000e+0
vn 0.0000000e+0 0.0000000e+0 -1.00000000
vn -1.00000000 -2.9548566e-15 0.0000000e+0
vn -1.00000000 -2.9548566e-15 0.0000000e+0
vn -1.00000000 -2.9548566e-15 0.0000000e+0
vn -1.00000000 -2.9548566e-15 0.0000000e+0
vn 0.0000000e+0 -1.00000000 0.0000000e+0
vn 0.0000000e+0 0.0000000e+0 -1.00000000
vn 1.00000000 0.0000000e+0 0.0000000e+0
vn 5.9601112e-17 0.0000000e+0 -1.00000000
vn 1.00000000 0.0000000e+0 0.0000000e+0
vn -6.7405333e-3 0.99995763 6.2684971e-3
vn 5.9601112e-17 0.0000000e+0 -1.00000000
vn 0.0000000e+0 0.63772965 -0.77026027
vn 1.00000000 0.0000000e+0 0.0000000e+0
vn 0.0000000e+0 1.00000000 0.0000000e+0
vn 1.3107754e-3 0.99999900 5.2235930e-4
vn 1.3107754e-3 0.99999900 5.2235930e-4
vn 1.3107754e-3 0.99999900 5.2235930e-4
vn 0.0000000e+0 0.63772965 0.77026027
vn 0.0000000e+0 1.00000000 0.0000000e+0
vn 1.00000000 0.0000000e+0 0.0000000e+0
vn 1.00000000 0.0000000e+0 0.0000000e+0
vn 0.0000000e+0 1.00000000 0.0000000e+0
vn 0.0000000e+0 0.63772965 0.77026027
vn 3.7449293e-3 0.99998296 -4.4773880e-3
vn 3.7449293e-3 0.99998296 -4.4773880e-3
vn 3.7449293e-3 0.99998296 -4.4773880e-3
vn 1.00000000 0.0000000e+0 0.0000000e+0
vn 0.0000000e+0 0.0000000e+0 1.00000000
vn 0.0000000e+0 0.99990979 -1.3431848e-2
vn 0.79234486 0.61007345 0.0000000e+0
vn 1.1920222e-16 0.0000000e+0 -1.00000000
vn 0.0000000e+0 1.00000000 0.0000000e+0
vn -5.6169437e-4 0.99999897 -1.3214143e-3
vn -5.6169437e-4 0.99999897 -1.3214143e-3
vn -5.6169437e-4 0.99999897 -1.3214143e-3
vn 0.0000000e+0 0.0000000e+0 1.00000000
vn -1.00000000 0.0000000e+0 0.0000000e+0
vn 3.2580260e-3 0.99998972 -3.1527843e-3
vn 3.2580260e-3 0.99998972 -3.1527843e-3
vn 3.2580260e-3 0.99998972 -3.1527843e-3
vn 3.2580260e-3 0.99998972 -3.1527843e-3
vn 3.2580260e-3 0.99998972 -3.1527843e-3
vn -1.00000000 0.0000000e+0 0.0000000e+0
vn 0.0000000e+0 0.0000000e+0 1.00000000
vn -1.00000000 0.0000000e+0 0.0000000e+0
vn 0.0000000e+0 0.0000000e+0 1.00000000
vn 2.8087052e-3 0.99997350 -6.7161017e-3
vn 2.8087052e-3 0.99997350 -6.7161017e-3
vn -0.79234486 0.61007345 0.0000000e+0
vn 4.8144981e-3 0.99998161 -3.6875487e-3
vn 0.0000000e+0 1.00000000 0.0000000e+0
vn -1.1910680e-16 0.0000000e+0 -1.00000000
vn 0.0000000e+0 1.00000000 0.0000000e+0
vn -1.1910680e-16 0.0000000e+0 -1.00000000
vn -0.79234486 0.61007345 0.0000000e+0
vn 4.8144981e-3 0.99998161 -3.6875487e-3
vn 4.8144981e-3 0.99998161 -3.6875487e-3
vn 1.4443111e-2 0.99989569 0.0000000e+0
vn -2.3821360e-16 0.0000000e+0 -1.00000000
vn -1.00000000 0.0000000e+0 0.0000000e+0
vn 7.2217712e-3 0.99997010 -2.7656707e-3
vn -1.00000000 0.0000000e+0 0.0000000e+0
vn 0.0000000e+0 0.0000000e+0 1.00000000
vn -1.00000000 0.0000000e+0 0.0000000e+0
vn 0.0000000e+0 0.0000000e+0 1.00000000
vn 7.2217712e-3 0.99997010 -2.7656707e-3
vn -1.00000000 0.0000000e+0 0.0000000e+0
vn 0.0000000e+0 0.0000000e+0 1.00000000
vn 0.0000000e+0 1.00000000 0.0000000e+0
vn 0.0000000e+0 1.00000000 0.0000000e+0
vn 0.0000000e+0 1.00000000 0.0000000e+0
vn 0.79234486 0.61007345 0.0000000e+0
vn -1.1712645e-16 0.0000000e+0 1.00000000
vn -1.1712645e-16 0.0000000e+0 1.00000000
vn 0.0000000e+0 1.00000000 0.0000000e+0
vn 0.79234486 0.61007345 0.0000000e+0
vn 0.0000000e+0 1.00000000 0.0000000e+0
vn 0.79234486 0.61007345 0.0000000e+0
vn -7.8084300e-17 0.0000000e+0 1.00000000
vn -7.8084300e-17 0.0000000e+0 1.00000000
vn -7.8084300e-17 0.0000000e+0 1.00000000
vn 0.0000000e+0 1.00000000 0.0000000e+0
vn 0.0000000e+0 1.00000000 0.0000000e+0
vn 2.1537436e-16 0.0000000e+0 1.00000000
vn 2.1537436e-16 0.0000000e+0 1.00000000
vn -0.79234486 0.61007345 0.0000000e+0
vn -0.79234486 0.61007345 0.0000000e+0
vn 2.1537436e-16 0.0000000e+0 1.00000000
vn 2.1537436e-16 0.0000000e+0 1.00000000
vn 0.0000000e+0 1.00000000 0.0000000e+0
vn 0.0000000e+0 1.00000000 0.0000000e+0
vn -0.79234486 0.61007345 0.0000000e+0
vn 0.0000000e+0 0.0000000e+0 1.00000000
vn 0.0000000e+0 1.00000000 0.0000000e+0
vn 0.0000000e+0 1.00000000 0.0000000e+0
vn 0.0000000e+0 1.00000000 0.0000000e+0
vn 1.00000000 0.0000000e+0 0.0000000e+0
vn 1.00000000 0.0000000e+0 0.0000000e+0
vn 0.0000000e+0 0.0000000e+0 -1.00000000
vn 0.0000000e+0 1.00000000 7.9057401e-17
vn 0.0000000e+0 1.00000000 7.9057401e-17
vn 0.0000000e+0 1.00000000 7.9057401e-17
vn 0.0000000e+0 0.0000000e+0 -1.00000000
vn 1.00000000 0.0000000e+0 0.0000000e+0
vn 0.0000000e+0 0.0000000e+0 -1.00000000
vn 0.0000000e+0 1.00000000 1.1026411e-16
vn 0.0000000e+0 1.00000000 1.1026411e-16
vn 0.0000000e+0 1.00000000 1.1026411e-16
vn -1.00000000 0.0000000e+0 0.0000000e+0
vn 0.0000000e+0 0.63772965 0.77026027
vn 0.0000000e+0 1.00000000 0.0000000e+0
vn 0.0000000e+0 1.00000000 0.0000000e+0
vn -1.00000000 1.2017512e-15 0.0000000e+0
vn -1.00000000 1.2017512e-15 0.0000000e+0
vn 0.0000000e+0 0.63772965 0.77026027
vn 0.0000000e+0 1.00000000 0.0000000e+0
vn -1.00000000 -5.9097132e-15 0.0000000e+0
vn -1.00000000 -5.9097132e-15 0.0000000e+0
vn 0.0000000e+0 0.63772965 0.77026027
vn 0.0000000e+0 0.63772965 -0.77026027
vn 0.0000000e+0 1.00000000 0.0000000e+0
vn 0.0000000e+0 1.00000000 0.0000000e+0
vn -1.00000000 -5.2492889e-15 0.0000000e+0
vn -1.00000000 -5.2492889e-15 0.0000000e+0
vn -1.00000000 -5.2492889e-15 0.0000000e+0
vn 0.0000000e+0 0.63772965 -0.77026027
vn -1.00000000 -7.6246894e-16 0.0000000e+0
vn -1.00000000 -7.6246894e-16 0.0000000e+0
vn 0.0000000e+0 0.63772965 -0.77026027
vn 0.0000000e+0 1.00000000 0.0000000e+0
vn 0.0000000e+0 1.00000000 0.0000000e+0
vn 0.0000000e+0 1.00000000 0.0000000e+0
vn 1.00000000 0.0000000e+0 0.0000000e+0
vn 0.0000000e+0 0.0000000e+0 -1.00000000
vn 0.0000000e+0 1.00000000 0.0000000e+0
vn 0.0000000e+0 1.00000000 0.0000000e+0
vn 0.0000000e+0 1.00000000 0.0000000e+0
vn 0.0000000e+0 0.63772965 -0.77026027
vn 1.00000000 0.0000000e+0 0.0000000e+0
vn 0.0000000e+0 0.63772965 -0.77026027
vn 1.00000000 0.0000000e+0 0.0000000e+0
vn 0.0000000e+0 1.00000000 0.0000000e+0
vn -1.00000000 0.0000000e+0 0.0000000e+0
vn 0.0000000e+0 0.0000000e+0 1.00000000
vn 0.0000000e+0 1.00000000 -2.3405029e-17
vn 0.0000000e+0 1.00000000 -2.3405029e-17
vn 0.0000000e+0 1.00000000 -2.3405029e-17
vn 0.0000000e+0 1.00000000 -2.3405029e-17
vn 0.0000000e+0 0.63772965 0.77026027
vn 0.0000000e+0 1.00000000 0.0000000e+0
vn 1.00000000 0.0000000e+0 0.0000000e+0
vn 0.0000000e+0 0.0000000e+0 1.00000000
vn 0.0000000e+0 1.00000000 0.0000000e+0
vn 1.00000000 0.0000000e+0 0.0000000e+0
vn 0.0000000e+0 1.00000000 0.0000000e+0
vn 0.0000000e+0 1.00000000 0.0000000e+0
vn 0.0000000e+0 0.0000000e+0 1.00000000
vn 1.00000000 0.0000000e+0 0.0000000e+0
vn 0.79234486 0.61007345 0.0000000e+0
vn 0.0000000e+0 1.00000000 0.0000000e+0
vn 5.9601112e-17 0.0000000e+0 -1.00000000
vn 0.79234486 0.61007345 0.0000000e+0
vn 5.9601112e-17 0.0000000e+0 -1.00000000
vn -1.00000000 0.0000000e+0 0.0000000e+0
vn 0.0000000e+0 0.0000000e+0 1.00000000
vn 0.0000000e+0 1.00000000 0.0000000e+0
vn 0.0000000e+0 0.0000000e+0 1.00000000
vn -1.00000000 0.0000000e+0 0.0000000e+0
vn -1.00000000 0.0000000e+0 0.0000000e+0
vn 0.0000000e+0 0.0000000e+0 1.00000000
vn 0.0000000e+0 1.00000000 5.9293051e-17
vn 0.0000000e+0 1.00000000 5.9293051e-17
vn 0.0000000e+0 1.00000000 5.9293051e-17
vn 0.0000000e+0 1.00000000 5.9293051e-17
vn -0.79234486 0.61007345 0.0000000e+0
vn 0.0000000e+0 0.0000000e+0 -1.00000000
vn 0.0000000e+0 1.00000000 0.0000000e+0
vn -1.00000000 0.0000000e+0 0.0000000e+0
vn -1.1910680e-16 0.0000000e+0 -1.00000000
vn -1.1910680e-16 0.0000000e+0 -1.00000000
vn 0.0000000e+0 1.00000000 0.0000000e+0
vn 0.0000000e+0 1.00000000 0.0000000e+0
vn 0.0000000e+0 1.00000000 0.0000000e+0
vn -1.00000000 0.0000000e+0 0.0000000e+0
g City Floor_default
usemtl default
s 1
f 1/15/7 4/14/25 2/21/14
f 2/21/9 4/14/19 3/20/16
f 5/10/29 28/11/161 27/10/153
f 6/22/34 7/23/42 25/16/142
f 6/11/33 28/11/159 5/10/27
f 7/10/41 31/11/178 30/11/171
f 8/11/47 31/11/174 7/10/40
f 9/11/50 32/6/179 17/10/96
f 11/2/63 33/1/184 34/2/189
f 12/6/69 19/10/107 35/11/195
f 14/6/82 36/5/198 29/6/163
f 16/5/92 17/10/98 32/6/182
f 18/5/106 19/10/112 12/6/75
f 24/17/136 25/16/141 7/23/39
f 33/1/188 11/2/65 10/1/57
f 36/5/204 14/6/84 13/5/80
s 2
f 1/14/4 16/10/94 15/5/88
f 2/20/12 17/10/99 1/14/2
f 3/14/18 4/20/26 21/11/123
f 5/6/28 32/6/181 9/11/51
f 7/10/43 23/6/135 24/5/139
f 8/5/48 11/10/66 31/5/177
f 10/1/56 14/9/85 33/1/187
f 12/6/72 36/11/199 13/11/79
f 16/10/93 1/14/3 17/10/101
f 17/10/100 2/20/13 18/10/105
f 18/10/104 2/20/11 19/10/109
f 20/10/113 19/10/108 2/20/8
f 22/6/125 21/11/119 4/20/20
f 23/6/130 7/10/38 30/11/169
f 25/6/140 28/10/158 6/11/32
f 27/6/154 32/6/183 5/6/31
f 28/10/160 25/6/146 26/5/149
f 29/9/164 33/1/185 14/9/83
f 34/10/190 31/5/172 11/10/64
f 35/6/196 36/11/200 12/6/74
s 3
f 2/14/15 21/11/124 20/10/117
f 3/20/17 21/11/118 2/14/10
f 5/14/30 9/14/53 6/15/35
f 6/15/37 10/18/62 7/15/45
f 7/15/46 11/19/68 8/15/49
f 10/18/58 6/15/36 9/14/54
f 10/18/60 12/14/77 14/21/86
f 11/19/67 7/15/44 10/18/61
f 12/14/76 10/18/59 9/14/55
f 13/20/78 14/21/81 12/14/70
f 15/7/89 27/12/155 26/8/150
f 16/12/95 27/12/157 15/7/90
f 26/8/151 27/12/156 28/13/162
f 32/13/180 27/12/152 16/12/91
s 4
f 12/23/71 17/16/97 18/22/103
f 17/16/102 12/23/73 9/17/52
f 19/7/110 36/13/202 35/8/197
f 20/12/116 36/13/203 19/7/111
f 21/13/120 29/8/167 20/12/115
f 22/8/126 34/4/193 21/13/122
f 23/7/132 31/7/176 22/8/128
f 29/8/168 21/13/121 34/4/192
f 30/12/170 31/7/173 23/7/131
f 33/3/186 29/8/165 34/4/191
f 34/4/194 22/8/127 31/7/175
f 36/13/201 20/12/114 29/8/166
s 5
f 1/20/5 25/5/144 4/14/22
f 4/14/24 23/5/134 22/6/129
f 15/5/87 26/5/147 1/20/1
f 23/5/133 4/14/23 24/5/138
f 24/5/137 4/14/21 25/5/143
f 25/5/145 1/20/6 26/5/148
